# xmcd
#
# Track frame offsets:
#  150
#  9992
#  23107
#  31957
#  43292
#  56157
#  69417
#  82992
#  99737
#  112997
#  124697
#  137442
#  155532
#  168512
#  183222
#  196222
#  211137
#  225662
#  245652
#  257032
#
# Disc length: 3591 seconds
#
# Revision: 7
# Processed by: cddbd v1.5.1PL0 Copyright (c) Steve Scherf et al.
# Submitted via: AltoMP3_Maker 3.0
#
DISCID=080e0514
DTITLE=Frank Sinatra - Classic Sinatra - His Greatest Performances 1953-1960
DYEAR=2000
DGENRE=Swing
TTITLE0=I've Got The World On A String
TTITLE1=I Get A Kick Out Of You
TTITLE2=They Can't Take That Away From Me
TTITLE3=My Funny Valentine
TTITLE4=Young At Heart
TTITLE5=Someone To Watch Over Me
TTITLE6=In The Wee Small Hours Of The Morning
TTITLE7=I've Got You Under My Skin
TTITLE8=You Make Me Feel So Young
TTITLE9=It Happened In Monterey
TTITLE10=Oh! Look At Me Now
TTITLE11=Night And Day
TTITLE12=Witchcraft
TTITLE13=The Lady Is A Tramp
TTITLE14=All The Way
TTITLE15=Come Fly With Me
TTITLE16=Put Your Dreams Away
TTITLE17=One For My Baby (And One More For The Road)
TTITLE18=Come Dance With Me
TTITLE19=Nice 'N' Easy
EXTD=
EXTT0=
EXTT1=
EXTT2=
EXTT3=
EXTT4=
EXTT5=
EXTT6=
EXTT7=
EXTT8=
EXTT9=
EXTT10=
EXTT11=
EXTT12=
EXTT13=
EXTT14=
EXTT15=
EXTT16=
EXTT17=
EXTT18=
EXTT19=
PLAYORDER=
